<svg width="28" height="42" viewBox="0 0 28 42" fill="none" xmlns="http://www.w3.org/2000/svg">
<path d="M26.4973 9.81054L25.3858 9.49933L25.786 8.15076C25.9045 7.73581 25.6378 7.39496 25.2228 7.23195L9.58823 1.43751L5.77961 0.0444779C5.37949 -0.103717 4.9349 0.133395 4.83116 0.533522L4.14947 3.11212L2.29703 2.54898C1.8969 2.43042 1.45231 2.62308 1.2893 3.00838L0 5.89819L26.5714 13.8415L27.1049 10.7442C27.1642 10.3292 26.8974 9.9291 26.4973 9.81054Z" fill="#FFDC00"/>
<path d="M13.7526 21.3401L8.92139 10.0625L1.24487 7.75061L3.79383 27.0753L8.44716 27.2976L7.98776 19.132L11.4111 27.2976H16.094L19.5173 19.2061L18.9542 27.2976L23.4593 27.0456L25.1932 14.9529L17.5019 12.6411L13.7526 21.3401Z" fill="#FFDC00"/>
<path d="M8.9214 36.0115C9.92912 36.1745 10.6701 36.1893 10.6701 36.1893L10.7146 37.9528C9.84021 37.8935 8.55091 37.6416 8.06186 37.5082C7.57282 37.3748 7.4839 36.8562 7.4839 36.8562L7.03932 31.6693C7.03932 31.6693 7.0245 31.3285 7.64692 31.4174C10.0477 31.7286 13.3524 31.6545 13.3524 31.6545V28.5572C11.5445 28.5128 5.48327 28.0978 5.48327 28.0978C3.61601 28.0089 3.8383 29.4909 3.8383 29.4909C3.8383 29.4909 4.65337 35.6558 4.89049 37.3748C5.1276 39.0939 5.7352 39.7015 6.31316 40.2943C6.90594 40.8871 8.9214 41.6281 10.2552 41.8207C11.5889 42.0282 13.471 41.9985 13.471 41.9985V33.4921C10.7887 33.4921 8.75838 33.255 8.75838 33.255L8.9214 36.0115Z" fill="#FFDC00"/>
<path d="M14.3008 30.8246C14.3008 32.351 14.2267 39.0494 14.2267 39.0494C14.2267 39.0494 13.9747 41.9541 16.1532 41.8355C18.3317 41.717 20.273 40.8722 21.7698 39.746L22.1403 36.2634C22.1403 36.2634 20.4657 37.3748 18.6429 37.6712C18.6429 37.6712 18.139 37.775 17.9167 37.775C17.6944 37.775 17.5759 37.6564 17.5759 37.3007C17.5759 36.9451 17.8574 32.0102 17.8574 32.0102C17.8574 32.0102 17.8723 31.5804 18.4502 31.5211C19.0282 31.4618 21.8735 31.1358 22.7923 30.7357L23.1925 28.1275C23.1925 28.1275 17.8278 28.5276 16.5385 28.5572C15.264 28.6165 14.3008 29.2982 14.3008 30.8246Z" fill="#FFDC00"/>
</svg>
