<svg width="42" height="42" viewBox="0 0 42 42" fill="none" xmlns="http://www.w3.org/2000/svg">
<circle cx="21" cy="21" r="21" fill="white"/>
<path fill-rule="evenodd" clip-rule="evenodd" d="M19.5859 19.6465C19.5859 19.6465 19.1444 19.5581 19.1884 19.8156C19.1884 19.8156 19.9095 20.8903 20.5575 21.0962C20.5575 21.0962 20.8962 21.2434 21.2492 21.0962C21.2492 21.0962 22.0001 20.7873 22.5813 20.0073C22.5813 20.0073 22.7946 19.6981 22.4562 19.6907C22.4562 19.6907 20.3217 19.9556 19.5859 19.6465ZM36.0976 22.2959C36.6826 22.3842 37.6211 22.9914 37.6211 22.9914C37.8197 23.1348 38.758 23.5213 38.758 23.5213C39.8631 23.923 40.4957 23.807 40.8365 23.6323C40.9257 22.952 40.9813 22.2611 41 21.5613C39.4814 22.4708 37.923 21.5085 37.923 21.5085C37.5992 21.3614 36.6937 20.8609 36.6937 20.8609C35.6558 20.1986 34.6845 20.3311 34.6845 20.3311C34.6845 20.1986 34.2431 19.2933 34.2431 19.2933C34.5377 19.0945 35.2586 19.1241 35.2586 19.1241C35.9063 19.1386 37.1427 19.9042 37.1427 19.9042C38.405 20.5381 38.7028 20.6234 38.7028 20.6234C39.8048 21.0972 40.6286 20.5123 40.9893 20.1673C40.5486 9.50721 31.7685 1 21.0004 1C10.2371 1 1.46046 9.49913 1.01191 20.1517C1.36403 20.4942 2.19618 21.1042 3.31428 20.6233C3.31428 20.6233 3.61267 20.538 4.87492 19.9041C4.87492 19.9041 6.11109 19.1385 6.75839 19.124C6.75839 19.124 7.47977 19.0944 7.77407 19.2932C7.77407 19.2932 7.33266 20.1985 7.33266 20.331C7.33266 20.331 6.36123 20.1985 5.32347 20.8608C5.32347 20.8608 4.4182 21.3613 4.09469 21.5084C4.09469 21.5084 2.52396 22.478 1 21.551C1.01861 22.2509 1.07355 22.9418 1.16232 23.622C1.49854 23.802 2.13332 23.9307 3.25924 23.5212C3.25924 23.5212 4.1978 23.1348 4.39603 22.9913C4.39603 22.9913 5.3346 22.3841 5.91964 22.2958C5.91964 22.2958 6.3501 22.2296 6.59285 22.2958L6.39444 23.4218C6.39444 23.4218 5.64359 23.4576 5.09176 23.7931C5.09176 23.7931 4.34639 24.1602 3.97679 24.4152C3.97679 24.4152 2.58482 25.2787 1.41507 25.1132C1.52445 25.6394 1.65564 26.1578 1.80571 26.6679C2.09097 26.7317 2.59029 26.7397 3.35871 26.4133C3.35871 26.4133 3.92158 26.1593 4.77146 25.5964C4.77146 25.5964 5.511 25.2212 6.21751 25.2763L6.10718 26.3028C6.10718 26.3028 5.49996 26.2866 4.91483 26.7032C4.91483 26.7032 3.57885 27.7724 2.21165 27.9007C2.40058 28.4148 2.61099 28.9187 2.83939 29.4123C3.11509 29.4191 3.62806 29.3383 4.26371 28.7977C4.26371 28.7977 4.94822 28.2568 5.20201 28.1796C5.20201 28.1796 5.66576 27.9256 6.2176 28.0251L6.44957 29.0295C6.44957 29.0295 5.61064 29.1952 5.20201 29.5153C5.20201 29.5153 4.53401 30.0022 4.21954 30.1666C4.21954 30.1666 3.89176 30.4131 3.35549 30.4462C3.61962 30.9394 3.9041 31.42 4.20719 31.8874C4.88822 31.4029 6.39523 30.4217 7.06756 30.7076L6.69231 29.449C6.69231 29.449 7.70782 29.6478 8.83392 28.7646L9.82717 28.002C9.82717 28.002 9.69475 26.2758 11.8585 23.7007C11.8585 23.7007 12.609 22.6711 12.1013 21.1036C12.1013 21.1036 10.0921 16.3789 13.448 14.1491C13.448 14.1491 11.3285 16.0089 12.83 20.7087C12.83 20.7087 13.757 22.3841 12.5428 24.0399C12.5428 24.0399 10.7985 26.0295 10.5999 27.9159C10.5999 27.9159 10.5118 29.2062 11.6819 30.9284C11.6819 30.9284 9.98167 32.6505 8.81166 32.9595C8.81166 32.9595 8.10515 33.1582 7.7739 32.9595L7.37648 31.7893C7.37648 31.7893 6.67006 31.701 5.98563 32.0764C5.98563 32.0764 5.26695 32.4942 4.83536 32.798C5.1321 33.2045 5.4438 33.5991 5.76966 33.9813C6.1297 33.7046 6.99323 33.1151 7.64139 33.2687L8.19358 34.0524C8.19358 34.0524 7.0087 34.0545 6.42435 34.7124C6.81386 35.1267 7.22093 35.5244 7.64461 35.9041C7.89249 35.6958 8.28756 35.4344 8.72307 35.4212L9.38567 36.1608C9.38567 36.1608 8.88574 36.384 8.589 36.7011C9.2436 37.2196 9.93107 37.6985 10.6484 38.1328C11.1793 36.6835 12.2559 35.3219 12.2559 35.3219C13.0287 34.3063 12.9402 32.6284 12.9402 32.6284C14.1325 34.0635 12.344 36.2437 12.344 36.2437C11.7455 36.6622 11.4405 37.7405 11.2945 38.5066C11.6503 38.7042 12.0125 38.8925 12.381 39.0687C12.5322 38.3674 12.9414 37.2672 13.9923 35.7195C13.9923 35.7195 15.5457 34.1077 14.4416 32.5623C14.4416 32.5623 14.3092 31.9661 13.2276 30.7518C13.2276 30.7518 10.9502 28.5218 12.2985 26.3582C12.2985 26.3582 13.2715 24.7906 14.0885 24.018C14.0885 24.018 15.1039 22.6491 14.2207 20.9049C14.2207 20.9049 11.5713 16.7323 15.3686 13.2438C15.3686 13.2438 12.5428 16.627 15.0819 20.7087C15.0819 20.7087 16.2076 22.6711 14.596 24.3932C14.596 24.3932 11.6598 27.5504 13.448 29.8025C13.448 29.8025 14.3313 30.8621 14.4857 31.0389C14.4857 31.0389 16.6936 33.1583 15.0819 35.7414C15.0819 35.7414 13.3611 37.8351 13.4801 39.5531C13.9839 39.7576 14.4971 39.9433 15.0204 40.1066C14.936 39.3578 15.0057 38.1136 15.9207 36.6466C15.9207 36.6466 17.9517 33.9753 16.7819 32.209C16.7819 32.209 16.3623 31.3038 15.4349 30.3543C15.4349 30.3543 13.161 28.1906 15.2583 25.453C15.2583 25.453 17.5325 23.3335 16.5388 21.3024C16.5388 21.3024 13.139 15.6724 17.2013 12.8686C17.2013 12.8686 14.3976 15.6503 16.6714 19.757C16.6714 19.757 18.5262 23.0907 16.9804 24.4596C16.9804 24.4596 14.3405 27.418 15.782 29.3388C15.782 29.3388 16.7598 30.6194 16.9586 30.8402C16.9586 30.8402 19.0558 33.026 17.4886 35.6532C17.4886 35.6532 16.3846 37.5741 16.3402 37.7286C16.3402 37.7286 15.8148 38.577 16.1577 40.4244C16.683 40.5552 17.216 40.6651 17.7569 40.7529C17.4624 40.0207 17.2677 38.9941 17.6651 37.8168C17.6651 37.8168 18.4157 36.1682 18.7247 35.7857C18.7247 35.7857 20.0788 33.6071 19.2252 32.1793C19.2252 32.1793 19.1811 31.8261 17.9888 30.2808C17.9888 30.2808 15.8107 28.2057 17.076 26.4686C17.076 26.4686 18.5631 24.3919 18.6512 23.7008C18.6512 23.7008 18.8571 22.7743 19.917 23.5985C19.917 23.5985 20.7999 24.0065 21.9332 23.4787C21.9332 23.4787 22.7284 22.9363 23.0669 23.5028C23.0669 23.5028 23.4787 24.4818 24.6417 25.9095C24.6417 25.9095 26.3638 27.7343 24.3175 30.0011C24.3175 30.0011 21.742 32.3121 22.7135 34.5052C22.7135 34.5052 24.6333 37.7638 24.6564 39.2299C24.6564 39.2299 24.6363 39.9978 24.347 40.7357C24.8582 40.6498 25.3629 40.5446 25.8598 40.4203C26.2014 38.5755 25.6768 37.7286 25.6768 37.7286C25.6326 37.5741 24.5286 35.6532 24.5286 35.6532C22.9612 33.0259 25.0586 30.8402 25.0586 30.8402C25.2573 30.6194 26.2352 29.3388 26.2352 29.3388C27.6765 27.418 25.0368 24.4596 25.0368 24.4596C23.4909 23.0907 25.3459 19.757 25.3459 19.757C27.6198 15.6504 24.8159 12.8686 24.8159 12.8686C28.8782 15.6724 25.4783 21.3024 25.4783 21.3024C24.4846 23.3335 26.7587 25.453 26.7587 25.453C28.856 28.1906 26.5823 30.3543 26.5823 30.3543C25.6549 31.3038 25.2352 32.209 25.2352 32.209C24.0653 33.9753 26.0966 36.6466 26.0966 36.6466C27.0091 38.1098 27.0808 39.3515 26.9971 40.1013C27.5204 39.937 28.0337 39.751 28.5375 39.5461C28.6513 37.8295 26.9353 35.7414 26.9353 35.7414C25.3236 33.1583 27.5315 31.0388 27.5315 31.0388C27.6857 30.8621 28.5692 29.8024 28.5692 29.8024C30.3574 27.5503 27.4212 24.3932 27.4212 24.3932C25.8095 22.671 26.9353 20.7086 26.9353 20.7086C29.4743 16.6269 26.6482 13.2437 26.6482 13.2437C30.4458 16.7322 27.7965 20.9048 27.7965 20.9048C26.913 22.649 27.9289 24.0179 27.9289 24.0179C28.7457 24.7905 29.7183 26.3581 29.7183 26.3581C31.067 28.5217 28.7897 30.7517 28.7897 30.7517C27.7079 31.966 27.5754 32.5622 27.5754 32.5622C26.4715 34.1075 28.0248 35.7194 28.0248 35.7194C29.0721 37.2619 29.4823 38.3599 29.6346 39.0613C30.0031 38.8847 30.3653 38.6964 30.721 38.498C30.5743 37.7326 30.2693 36.6603 29.673 36.2436C29.673 36.2436 27.8845 34.0634 29.0768 32.6283C29.0768 32.6283 28.9884 34.3063 29.7611 35.3218C29.7611 35.3218 30.8337 36.6783 31.3656 38.1248C32.0812 37.6903 32.7674 37.2115 33.4204 36.6938C33.1229 36.3805 32.631 36.1607 32.631 36.1607L33.2935 35.4211C33.7243 35.4342 34.115 35.6898 34.3637 35.8973C34.7874 35.5163 35.1948 35.1179 35.5845 34.7031C34.9972 34.0545 33.8235 34.0524 33.8235 34.0524L34.3753 33.2687C35.0171 33.1165 35.8705 33.6936 36.2369 33.9737C36.5625 33.5915 36.8739 33.1969 37.1703 32.7905C36.7377 32.4871 36.0311 32.0764 36.0311 32.0764C35.3466 31.7011 34.64 31.7893 34.64 31.7893L34.2428 32.9595C33.9115 33.1582 33.2055 32.9595 33.2055 32.9595C32.0353 32.6504 30.3351 30.9284 30.3351 30.9284C31.5053 29.2061 31.4172 27.9159 31.4172 27.9159C31.2184 26.0295 29.4742 24.0399 29.4742 24.0399C28.2599 22.3841 29.187 20.7087 29.187 20.7087C30.6884 16.0088 28.569 14.1491 28.569 14.1491C31.9249 16.3789 29.9158 21.1036 29.9158 21.1036C29.4079 22.6711 30.1584 23.7007 30.1584 23.7007C32.3219 26.2757 32.1894 28.002 32.1894 28.002L33.183 28.7646C34.3089 29.6478 35.3244 29.449 35.3244 29.449L34.9491 30.7076C35.6179 30.4233 37.1118 31.392 37.7984 31.8792C38.1 31.4142 38.3824 30.936 38.6454 30.4454C38.1185 30.4086 37.7972 30.1667 37.7972 30.1667C37.4825 30.0022 36.8148 29.5154 36.8148 29.5154C36.4061 29.1953 35.5671 29.0296 35.5671 29.0296L35.7991 28.0252C36.351 27.9257 36.8148 28.1797 36.8148 28.1797C37.0686 28.257 37.7532 28.7978 37.7532 28.7978C38.3759 29.3277 38.8814 29.4155 39.1606 29.4124C39.3895 28.9187 39.6002 28.4144 39.789 27.8998C38.4273 27.7644 37.1018 26.7033 37.1018 26.7033C36.5168 26.2867 35.9096 26.3029 35.9096 26.3029L35.7992 25.2764C36.5058 25.2212 37.2452 25.5965 37.2452 25.5965C38.0952 26.1594 38.6584 26.4134 38.6584 26.4134C39.4098 26.7327 39.9049 26.7324 40.1931 26.6723C40.3435 26.1617 40.4749 25.6427 40.5848 25.1161C39.4185 25.2706 38.04 24.4153 38.04 24.4153C37.6704 24.1602 36.925 23.7932 36.925 23.7932C36.3732 23.4578 35.6225 23.4219 35.6225 23.4219L35.424 22.2959C35.6671 22.2296 36.0976 22.2959 36.0976 22.2959ZM8.74567 17.5933C7.26623 17.2841 5.01447 18.4102 5.01447 18.4102C2.65237 19.7349 1.76885 18.631 1.76885 18.631L3.60163 15.8049C5.50005 12.7803 4.85988 10.9699 4.85988 10.9699C4.79354 10.1972 5.34564 10.5064 5.34564 10.5064C7.46507 11.7869 7.48742 14.2817 7.48742 14.2817C11.3288 12.1401 12.543 13.818 12.543 13.818C10.8874 14.5907 8.74567 17.5933 8.74567 17.5933ZM17.2678 15.5032C17.2678 15.5032 17.6944 14.8704 18.8425 15.4002C18.8425 15.4002 19.549 15.7974 19.5049 16.1361C19.5049 16.1361 19.4901 16.4305 19.0192 16.1361C19.0192 16.1361 18.2099 15.7754 17.7831 16.1214C17.7831 16.1214 17.5843 16.4673 17.2238 16.1289C17.2238 16.1289 16.9735 15.8049 17.2678 15.5032ZM24.686 14.6938C24.686 14.6938 22.9196 14.267 22.1029 14.8483C22.1029 14.8483 21.0287 15.4151 21.5879 17.3799C21.5879 17.3799 21.6662 17.7717 22.0053 17.3006C22.0105 17.293 22.0162 17.285 22.0219 17.2768C22.375 16.769 22.5666 16.7323 22.9641 16.975C22.9641 16.975 23.6776 17.1738 24.2223 16.9604C24.2223 16.9604 24.3694 16.6145 24.6197 17.0119C24.6197 17.0119 24.7046 17.1738 24.7836 17.2474C24.7836 17.2474 25.1169 17.7479 24.7836 18.5721C24.7836 18.5721 24.6124 18.9619 24.3329 19.8452C24.3329 19.8452 23.6114 21.6702 22.0219 22.502C22.0219 22.502 21.1021 22.9728 19.8287 22.502C19.8287 22.502 18.2833 21.7955 17.5987 20.1765C17.5987 20.1765 16.7085 18.426 16.9148 17.3914C16.9148 17.3914 17.1575 16.5925 17.7169 16.7912C17.7169 16.7912 18.2023 17.1297 18.9973 16.8575C18.9973 16.8575 19.5788 16.5925 19.7477 17.012C19.7477 17.012 19.9395 17.4314 20.1382 16.9457C20.1382 16.9457 20.4175 16.3275 20.1672 15.3929C20.1672 15.3929 20.0719 14.5834 18.6074 14.5466C18.6074 14.5466 17.9081 14.5614 17.6502 14.6277C17.6502 14.6277 16.9294 14.8705 17.415 13.8842C17.415 13.8842 18.169 12.0738 20.9859 12.0738C20.9859 12.0738 23.8508 11.9269 24.7837 14.0756C24.7837 14.0756 25.1426 14.8261 24.686 14.6938ZM24.6844 16.1289C24.324 16.4674 24.125 16.1214 24.125 16.1214C23.6982 15.7754 22.8886 16.1361 22.8886 16.1361C22.4177 16.4305 22.4028 16.1361 22.4028 16.1361C22.3586 15.7974 23.065 15.4002 23.065 15.4002C24.2135 14.8704 24.6403 15.5032 24.6403 15.5032C24.9347 15.8049 24.6844 16.1289 24.6844 16.1289ZM28.5694 13.0011C28.5889 13.4204 28.0419 13.0892 28.0419 13.0892C20.425 9.46844 14.1623 13.0892 14.1623 13.0892C13.2975 13.6303 13.3931 12.6698 13.3931 12.6698C12.9183 10.6717 11.8718 9.42444 11.8718 9.42444C11.1896 8.80627 11.9469 8.92764 11.9469 8.92764C13.5145 9.10423 14.7951 9.9322 14.7951 9.9322C15.0159 8.9166 13.9893 7.50359 13.9893 7.50359C13.5918 6.98479 14.486 7.10617 14.486 7.10617C16.3467 7.76442 17.6331 8.60743 18.3932 9.207L19.3432 6.70136L17.1791 4.80458L19.9762 4.7292L20.9624 2.28582L21.9632 4.67026L24.7883 4.80293L22.6254 6.73092L23.5697 8.99364C25.4015 7.58253 27.5891 7.05096 27.5891 7.05096C28.329 6.94054 27.8764 7.52558 27.8764 7.52558C27.0924 8.91652 27.2691 9.79952 27.2691 9.79952C28.6269 9.05997 29.9625 8.86131 29.9625 8.86131C30.7907 8.69577 30.1455 9.31376 30.1455 9.31376C28.5289 11.1354 28.5694 13.0011 28.5694 13.0011ZM33.272 17.5933C33.272 17.5933 31.1304 14.5907 29.4745 13.8179C29.4745 13.8179 30.6888 12.14 34.5301 14.2817C34.5301 14.2817 34.552 11.7868 36.6714 10.5063C36.6714 10.5063 37.2237 10.1971 37.1572 10.9698C37.1572 10.9698 36.5171 12.7802 38.4156 15.8048L40.2483 18.6309C40.2483 18.6309 39.3653 19.7348 37.0027 18.4101C37.0027 18.4101 34.7507 17.2841 33.272 17.5933ZM18.8418 9.58364C19.1036 9.81873 19.2329 9.96532 19.2329 9.96532C20.2924 9.74466 22.5888 9.88803 22.5888 9.88803C22.6962 9.77031 22.8083 9.65754 22.9229 9.54816L20.9625 7.93787L18.8418 9.58364ZM20.1527 18.5205C19.8877 18.8001 20.1527 18.94 20.1527 18.94C20.7046 19.1755 21.6026 18.94 21.6026 18.94C22.1028 18.6163 21.8601 18.4838 21.8601 18.4838C21.6097 18.2261 21.0003 18.2262 21.0003 18.2262C20.5823 18.1968 20.1527 18.5205 20.1527 18.5205Z" fill="#00684D"/>
</svg>
