<svg width="42" height="43" viewBox="0 0 42 43" fill="none" xmlns="http://www.w3.org/2000/svg">
<path d="M7.09997 34.9041C3.53861 31.3401 1.34119 26.4317 1.34119 20.9972C1.34119 15.565 3.53861 10.6566 7.09997 7.0963C10.6621 3.53788 15.573 1.33753 21.0017 1.33753C26.4284 1.33753 31.3412 3.53788 34.9019 7.0963C38.4585 10.6566 40.6577 15.565 40.6577 20.9972C40.6577 26.4317 38.4585 31.3401 34.9019 34.9041C31.3412 38.4596 26.4284 40.6603 21.0017 40.6603C15.573 40.6603 10.6621 38.4596 7.09997 34.9041ZM21.0017 0C9.40377 0 0 9.40303 0 20.9972C0 32.6039 9.40377 42.0033 21.0017 42.0033C32.5984 42.0033 42 32.6039 42 20.9972C42 9.40303 32.5984 0 21.0017 0Z" fill="white"/>
<path d="M7.09996 34.9041C3.5386 31.3402 1.34119 26.4317 1.34119 20.9973C1.34119 15.565 3.5386 10.6566 7.09996 7.09631C10.662 3.53789 15.573 1.33754 21.0016 1.33754C26.4284 1.33754 31.3412 3.53789 34.9019 7.09631C38.4584 10.6566 40.6577 15.565 40.6577 20.9973C40.6577 26.4317 38.4584 31.3402 34.9019 34.9041C31.3412 38.4596 26.4284 40.6603 21.0016 40.6603C15.573 40.6603 10.662 38.4596 7.09996 34.9041Z" fill="#5A191D"/>
<path d="M21.0015 30.8687C15.5523 30.8537 11.1465 26.4453 11.1377 20.9972C11.1465 15.5606 15.5523 11.147 21.0015 11.147C26.4466 11.147 30.8539 15.5606 30.8642 20.9972C30.8539 26.4453 26.4466 30.8537 21.0015 30.8687ZM21.0015 9.81097C14.8219 9.81097 9.81079 14.8188 9.81079 20.9972C9.81079 27.1867 14.8219 32.1949 21.0015 32.1949C27.1862 32.1949 32.1907 27.1867 32.1907 20.9972C32.1907 14.8188 27.1862 9.81097 21.0015 9.81097Z" fill="white"/>
<path d="M21.0015 30.8688C15.5523 30.8537 11.1465 26.4453 11.1377 20.9973C11.1465 15.5606 15.5523 11.147 21.0015 11.147C26.4466 11.147 30.8539 15.5606 30.8642 20.9973C30.8539 26.4453 26.4466 30.8537 21.0015 30.8688Z" fill="#003D29"/>
<path d="M38.5628 37.0375C38.0148 37.0375 37.5735 36.5917 37.5735 36.0426C37.5735 35.4934 38.0148 35.0521 38.5628 35.0521C39.1179 35.0521 39.5596 35.4934 39.5596 36.0426C39.5596 36.5917 39.1179 37.0375 38.5628 37.0375ZM38.5628 34.7912C37.8743 34.7912 37.3104 35.347 37.3104 36.0426C37.3104 36.7363 37.8743 37.2957 38.5628 37.2957C39.2577 37.2957 39.8226 36.7363 39.8226 36.0426C39.8226 35.347 39.2577 34.7912 38.5628 34.7912Z" fill="#003D29"/>
<path d="M38.3655 35.5815V35.9142H38.5654C38.6527 35.9142 38.7107 35.904 38.7448 35.872C38.7859 35.846 38.8082 35.8056 38.8082 35.7429C38.8082 35.6905 38.7873 35.6464 38.7477 35.6178C38.7107 35.5848 38.6549 35.5815 38.5768 35.5815H38.3655ZM38.0947 35.3632H38.5907C38.7521 35.3632 38.8776 35.3995 38.97 35.4667C39.0566 35.5287 39.0959 35.62 39.0959 35.7429C39.0959 35.8159 39.0735 35.8772 39.0375 35.9373C38.9917 35.9975 38.9322 36.0426 38.8464 36.0771L39.1179 36.6897H38.8391L38.5984 36.1457H38.3655V36.6897H38.0947V35.3632Z" fill="#003D29"/>
<path d="M18.6829 23.0782L23.256 29.6033L28.2503 26.1058L23.6816 19.5756L27.0048 17.2494L23.6867 12.5108L12.0408 20.6669L15.3582 25.4015L18.6829 23.0782Z" fill="white"/>
<path d="M4.24691 18.8208L4.40686 16.9631L3.15444 16.8593L2.71936 22.0579L3.96958 22.1602L4.12402 20.3036L8.38825 20.6624L8.51298 19.18L4.24691 18.8208Z" fill="white"/>
<path d="M8.39467 15.3648C8.1067 16.0119 7.42986 16.3278 6.37224 15.8549C5.31132 15.3795 5.09965 14.6648 5.38615 14.0203C5.6789 13.3728 6.3539 13.0547 7.41445 13.5283C8.47281 14.003 8.68448 14.7195 8.39467 15.3648ZM4.24342 13.5067C3.62015 14.9 4.08861 16.458 5.76731 17.2067C7.4438 17.9566 8.91743 17.2687 9.53923 15.8769C10.1658 14.4847 9.69184 12.9267 8.01829 12.1769C6.34143 11.4248 4.86707 12.1145 4.24342 13.5067Z" fill="white"/>
<path d="M9.98317 6.65179L10.8196 9.39251L8.2179 8.19291L6.94897 9.30446L10.5892 13.4711L11.6373 12.5555L9.74032 10.3903L9.85404 10.2931L11.7697 11.1064L12.3948 10.5583L11.8438 8.55389L11.9553 8.45521L13.8516 10.62L14.8971 9.70946L11.2543 5.54097L9.98317 6.65179Z" fill="white"/>
<path d="M23.0961 2.81458L22.7711 4.02847L24.5727 4.50758L23.4788 8.64525L24.9139 9.02274L26.0133 4.88873L27.8178 5.3682L28.1374 4.1521L23.0961 2.81458Z" fill="white"/>
<path d="M28.702 9.5923C28.1154 9.1961 27.9192 8.47415 28.5714 7.51668C29.2196 6.557 29.9621 6.46676 30.5495 6.86259C31.1342 7.25952 31.3305 7.98147 30.6808 8.94481C30.0285 9.90339 29.2897 9.9918 28.702 9.5923ZM31.2498 5.82514C29.9841 4.96892 28.3663 5.16335 27.3399 6.68467C26.3109 8.20525 26.7353 9.77719 27.9995 10.6327C29.2648 11.4867 30.8793 11.2952 31.9079 9.77242C32.9347 8.2511 32.5161 6.6799 31.2498 5.82514Z" fill="white"/>
<path d="M37.0386 12.6407L34.1962 12.9877L35.8298 10.6325L34.9593 9.1901L30.2196 12.0515L30.9361 13.2386L33.4013 11.75L33.4754 11.8791L32.3418 13.6253L32.7685 14.3329L34.8404 14.1422L34.9167 14.2665L32.4552 15.7556L33.1727 16.9456L37.9109 14.086L37.0386 12.6407Z" fill="white"/>
<path d="M18.6621 3.02344L19.2989 6.36616L16.7097 3.39543V3.39249L15.1583 3.69L16.1936 9.12338L17.5549 8.86182L16.9126 5.50443L19.5168 8.4858L21.0587 8.19122L20.0227 2.76261L18.6621 3.02344Z" fill="white"/>
<path d="M39.1827 21.2831C39.3705 20.7001 39.3947 19.6345 39.2645 18.8868C38.9948 17.3083 38.1192 16.6468 37.161 16.8108C36.213 16.9722 35.9955 17.8839 35.8858 18.8035C35.7739 19.7416 35.7849 20.6708 35.3803 20.7398C35.0703 20.7915 34.8403 20.4298 34.7134 19.7045C34.5655 18.8443 34.6514 18.0266 34.9437 17.5581L34.8748 17.1377L33.5805 17.356C33.4011 17.9081 33.2746 18.9114 33.4646 20.0156C33.739 21.6169 34.6022 22.399 35.6385 22.2207C36.7101 22.0406 36.9328 21.0476 37.0384 20.1015C37.1368 19.2023 37.1327 18.345 37.4658 18.287C37.712 18.2478 37.913 18.5889 38.0146 19.1748C38.117 19.7599 38.1192 20.6649 37.8187 21.0879L37.8906 21.5002L39.1827 21.2831Z" fill="white"/>
<path d="M10.5649 27.867C9.56233 26.2913 7.92546 25.8992 6.43936 26.8424L6.43129 26.846C5.21813 27.6146 4.54276 29.3476 5.63486 31.0736C5.99034 31.6304 6.49145 32.1154 7.12316 32.457L8.2703 31.7258L8.01424 31.3249C7.45113 31.1385 7.1173 31.0391 6.70973 30.3934C6.28712 29.7269 6.40635 28.6469 7.24863 28.1157C8.1364 27.5533 9.03701 27.8468 9.48603 28.5497V28.5453C9.97357 29.32 9.79492 29.9055 9.64011 30.2915L9.89286 30.6954L11.011 29.9906C11.1999 29.1931 10.8426 28.3028 10.5649 27.867Z" fill="white"/>
<path d="M11.213 35.0026C10.6246 34.5961 10.4195 33.8749 11.1048 32.8972C11.7882 31.9163 12.5333 31.8627 13.1195 32.2714C13.705 32.6826 13.9149 33.3995 13.2296 34.3793C12.5487 35.3577 11.7985 35.416 11.213 35.0026ZM13.8481 31.2292C12.5832 30.3476 10.9379 30.5149 9.87367 32.0388C8.80798 33.5598 9.21995 35.1607 10.4859 36.0459C11.7556 36.9315 13.3994 36.7631 14.4596 35.2381C15.5242 33.7142 15.1181 32.1184 13.8481 31.2292Z" fill="white"/>
<path d="M20.0557 34.9596L20.3352 33.7211L16.3608 32.8216L15.1245 38.2744L16.5893 38.6082L17.0783 36.4508L19.3825 36.9732L19.6602 35.7325L17.3597 35.212L17.5431 34.3913L20.0557 34.9596Z" fill="white"/>
<path d="M25.5082 34.2109L25.2709 32.9643L21.2671 33.7211L22.3122 39.2194L23.7873 38.9403L23.3776 36.763L25.699 36.3206L25.4572 35.0737L23.1395 35.5161L22.9825 34.6903L25.5082 34.2109Z" fill="white"/>
<path d="M29.2284 37.3054L30.4815 36.4796L32.7934 34.9499L32.0924 33.8886L29.782 35.4191L29.2896 34.6696L31.424 33.2587L30.7211 32.1996L28.5849 33.6116L28.0967 32.8691L30.374 31.3654L29.6726 30.3063L26.1399 32.6395L29.2284 37.3054Z" fill="white"/>
<path d="M34.9145 32.838H34.9167L35.7468 31.5823L37.2759 29.2715L36.2164 28.573L34.6863 30.8853L33.942 30.3933L35.3543 28.2535L34.2941 27.5488L32.8803 29.6894L32.1396 29.1974L33.6463 26.9193L32.5872 26.2194L30.2496 29.751L34.9145 32.838Z" fill="white"/>
</svg>
