<svg width="52" height="52" viewBox="0 0 52 52" fill="none" xmlns="http://www.w3.org/2000/svg">
<g filter="url(#filter0_d_846_4231)">
<path d="M6 18C6 11.3726 11.3726 6 18 6L34 6C40.6274 6 46 11.3726 46 18V34C46 40.6274 40.6274 46 34 46H18C11.3726 46 6 40.6274 6 34V18Z" fill="white"/>
</g>
<path d="M26.2589 32.8064L26.0006 32.6502L25.7421 32.8059L20.084 36.2145L20.0831 36.215C19.4273 36.6119 18.6245 36.0273 18.7975 35.2835L20.2972 28.8485L20.3657 28.5547L20.1377 28.3571L15.134 24.0215L15.1338 24.0213C14.5536 23.5191 14.8686 22.5719 15.6233 22.5118L15.6233 22.5118L15.626 22.5116L22.2112 21.9526L22.5114 21.9271L22.6292 21.6499L25.206 15.5827L25.2068 15.5808C25.4988 14.885 26.5014 14.885 26.7934 15.5808L26.7941 15.5823L29.3709 21.6631L29.4886 21.9407L29.789 21.9662L36.3743 22.5252L36.3769 22.5255C37.1316 22.5855 37.4467 23.5327 36.8664 24.035L36.8663 24.0351L31.8626 28.3708L31.6346 28.5683L31.703 28.8621L33.2027 35.2972C33.2027 35.2972 33.2028 35.2973 33.2028 35.2974C33.3755 36.0411 32.5729 36.6255 31.9172 36.2286L31.917 36.2286L26.2589 32.8064Z" fill="#FAFAFA" stroke="#DBDBDB"/>
<path d="M26.2589 32.8064L26.0006 32.6502L25.7421 32.8059L20.084 36.2145L20.0831 36.215C19.4273 36.6119 18.6245 36.0273 18.7975 35.2835L20.2972 28.8485L20.3657 28.5547L20.1377 28.3571L15.134 24.0215L15.1338 24.0213C14.5536 23.519 14.8686 22.5718 15.6233 22.5118L15.6233 22.5118L15.626 22.5116L22.2112 21.9526L22.5114 21.9271L22.6292 21.6499L25.206 15.5827L25.2068 15.5807C25.4988 14.885 26.5014 14.885 26.7934 15.5808L26.7941 15.5823L29.3709 21.6631L29.4886 21.9407L29.789 21.9662L36.3743 22.5252L36.3769 22.5254C37.1316 22.5855 37.4467 23.5327 36.8664 24.035L36.8663 24.0351L31.8626 28.3707L31.6346 28.5683L31.703 28.8621L33.2027 35.2972C33.2027 35.2972 33.2028 35.2973 33.2028 35.2974C33.3755 36.041 32.5729 36.6255 31.9172 36.2286L31.917 36.2286L26.2589 32.8064Z" stroke="#CCCCCC"/>
<defs>
<filter id="filter0_d_846_4231" x="0" y="0" width="52" height="52" filterUnits="userSpaceOnUse" color-interpolation-filters="sRGB">
<feFlood flood-opacity="0" result="BackgroundImageFix"/>
<feColorMatrix in="SourceAlpha" type="matrix" values="0 0 0 0 0 0 0 0 0 0 0 0 0 0 0 0 0 0 127 0" result="hardAlpha"/>
<feOffset/>
<feGaussianBlur stdDeviation="3"/>
<feComposite in2="hardAlpha" operator="out"/>
<feColorMatrix type="matrix" values="0 0 0 0 0 0 0 0 0 0 0 0 0 0 0 0 0 0 0.08 0"/>
<feBlend mode="normal" in2="BackgroundImageFix" result="effect1_dropShadow_846_4231"/>
<feBlend mode="normal" in="SourceGraphic" in2="effect1_dropShadow_846_4231" result="shape"/>
</filter>
</defs>
</svg>
