<svg width="32" height="32" viewBox="0 0 32 32" fill="none" xmlns="http://www.w3.org/2000/svg">
<g filter="url(#filter0_ddf_891_3657)">
<path d="M16 18C17.1046 18 18 17.1046 18 16C18 14.8954 17.1046 14 16 14C14.8954 14 14 14.8954 14 16C14 17.1046 14.8954 18 16 18Z" fill="#FAFAFA"/>
<path d="M16 17.5C16.8284 17.5 17.5 16.8284 17.5 16C17.5 15.1716 16.8284 14.5 16 14.5C15.1716 14.5 14.5 15.1716 14.5 16C14.5 16.8284 15.1716 17.5 16 17.5Z" stroke="#FAFAFA"/>
</g>
<g filter="url(#filter1_dd_891_3657)">
<path d="M16 18C17.1046 18 18 17.1046 18 16C18 14.8954 17.1046 14 16 14C14.8954 14 14 14.8954 14 16C14 17.1046 14.8954 18 16 18Z" fill="#595959"/>
<path d="M16 17.5C16.8284 17.5 17.5 16.8284 17.5 16C17.5 15.1716 16.8284 14.5 16 14.5C15.1716 14.5 14.5 15.1716 14.5 16C14.5 16.8284 15.1716 17.5 16 17.5Z" stroke="#595959"/>
</g>
<g filter="url(#filter2_ddf_891_3657)">
<path fill-rule="evenodd" clip-rule="evenodd" d="M17 25.9506C21.7244 25.4816 25.4816 21.7244 25.9506 17H23C22.4477 17 22 16.5523 22 16C22 15.4477 22.4477 15 23 15H25.9506C25.4816 10.2756 21.7244 6.51844 17 6.04938V9C17 9.55228 16.5523 10 16 10C15.4477 10 15 9.55228 15 9V6.04938C10.2756 6.51844 6.51844 10.2756 6.04938 15H9C9.55228 15 10 15.4477 10 16C10 16.5523 9.55228 17 9 17H6.04938C6.51844 21.7244 10.2756 25.4816 15 25.9506V23C15 22.4477 15.4477 22 16 22C16.5523 22 17 22.4477 17 23V25.9506ZM4 16C4 22.6274 9.37258 28 16 28C22.6274 28 28 22.6274 28 16C28 9.37258 22.6274 4 16 4C9.37258 4 4 9.37258 4 16Z" fill="#FAFAFA"/>
</g>
<g filter="url(#filter3_dd_891_3657)">
<path fill-rule="evenodd" clip-rule="evenodd" d="M17 25.9506C21.7244 25.4816 25.4816 21.7244 25.9506 17H23C22.4477 17 22 16.5523 22 16C22 15.4477 22.4477 15 23 15H25.9506C25.4816 10.2756 21.7244 6.51844 17 6.04938V9C17 9.55228 16.5523 10 16 10C15.4477 10 15 9.55228 15 9V6.04938C10.2756 6.51844 6.51844 10.2756 6.04938 15H9C9.55228 15 10 15.4477 10 16C10 16.5523 9.55228 17 9 17H6.04938C6.51844 21.7244 10.2756 25.4816 15 25.9506V23C15 22.4477 15.4477 22 16 22C16.5523 22 17 22.4477 17 23V25.9506ZM4 16C4 22.6274 9.37258 28 16 28C22.6274 28 28 22.6274 28 16C28 9.37258 22.6274 4 16 4C9.37258 4 4 9.37258 4 16Z" fill="#595959"/>
</g>
<defs>
<filter id="filter0_ddf_891_3657" x="12" y="12" width="8" height="8" filterUnits="userSpaceOnUse" color-interpolation-filters="sRGB">
<feFlood flood-opacity="0" result="BackgroundImageFix"/>
<feColorMatrix in="SourceAlpha" type="matrix" values="0 0 0 0 0 0 0 0 0 0 0 0 0 0 0 0 0 0 127 0" result="hardAlpha"/>
<feOffset dx="1" dy="-1"/>
<feGaussianBlur stdDeviation="0.5"/>
<feColorMatrix type="matrix" values="0 0 0 0 1 0 0 0 0 1 0 0 0 0 1 0 0 0 1 0"/>
<feBlend mode="normal" in2="BackgroundImageFix" result="effect1_dropShadow_891_3657"/>
<feColorMatrix in="SourceAlpha" type="matrix" values="0 0 0 0 0 0 0 0 0 0 0 0 0 0 0 0 0 0 127 0" result="hardAlpha"/>
<feOffset dx="-1" dy="1"/>
<feGaussianBlur stdDeviation="0.5"/>
<feComposite in2="hardAlpha" operator="out"/>
<feColorMatrix type="matrix" values="0 0 0 0 0 0 0 0 0 0 0 0 0 0 0 0 0 0 0.16 0"/>
<feBlend mode="normal" in2="effect1_dropShadow_891_3657" result="effect2_dropShadow_891_3657"/>
<feBlend mode="normal" in="SourceGraphic" in2="effect2_dropShadow_891_3657" result="shape"/>
<feGaussianBlur stdDeviation="1" result="effect3_foregroundBlur_891_3657"/>
</filter>
<filter id="filter1_dd_891_3657" x="12" y="11.6" width="8.4" height="8.4" filterUnits="userSpaceOnUse" color-interpolation-filters="sRGB">
<feFlood flood-opacity="0" result="BackgroundImageFix"/>
<feColorMatrix in="SourceAlpha" type="matrix" values="0 0 0 0 0 0 0 0 0 0 0 0 0 0 0 0 0 0 127 0" result="hardAlpha"/>
<feOffset dx="0.4" dy="-0.4"/>
<feGaussianBlur stdDeviation="1"/>
<feColorMatrix type="matrix" values="0 0 0 0 1 0 0 0 0 1 0 0 0 0 1 0 0 0 1 0"/>
<feBlend mode="normal" in2="BackgroundImageFix" result="effect1_dropShadow_891_3657"/>
<feColorMatrix in="SourceAlpha" type="matrix" values="0 0 0 0 0 0 0 0 0 0 0 0 0 0 0 0 0 0 127 0" result="hardAlpha"/>
<feOffset dx="-1" dy="1"/>
<feGaussianBlur stdDeviation="0.5"/>
<feComposite in2="hardAlpha" operator="out"/>
<feColorMatrix type="matrix" values="0 0 0 0 0 0 0 0 0 0 0 0 0 0 0 0 0 0 0.16 0"/>
<feBlend mode="normal" in2="effect1_dropShadow_891_3657" result="effect2_dropShadow_891_3657"/>
<feBlend mode="normal" in="SourceGraphic" in2="effect2_dropShadow_891_3657" result="shape"/>
</filter>
<filter id="filter2_ddf_891_3657" x="1" y="2" width="29" height="30" filterUnits="userSpaceOnUse" color-interpolation-filters="sRGB">
<feFlood flood-opacity="0" result="BackgroundImageFix"/>
<feColorMatrix in="SourceAlpha" type="matrix" values="0 0 0 0 0 0 0 0 0 0 0 0 0 0 0 0 0 0 127 0" result="hardAlpha"/>
<feOffset dx="1" dy="-1"/>
<feGaussianBlur stdDeviation="0.5"/>
<feColorMatrix type="matrix" values="0 0 0 0 1 0 0 0 0 1 0 0 0 0 1 0 0 0 1 0"/>
<feBlend mode="normal" in2="BackgroundImageFix" result="effect1_dropShadow_891_3657"/>
<feColorMatrix in="SourceAlpha" type="matrix" values="0 0 0 0 0 0 0 0 0 0 0 0 0 0 0 0 0 0 127 0" result="hardAlpha"/>
<feOffset dx="-1" dy="2"/>
<feGaussianBlur stdDeviation="1"/>
<feComposite in2="hardAlpha" operator="out"/>
<feColorMatrix type="matrix" values="0 0 0 0 0 0 0 0 0 0 0 0 0 0 0 0 0 0 0.16 0"/>
<feBlend mode="normal" in2="effect1_dropShadow_891_3657" result="effect2_dropShadow_891_3657"/>
<feBlend mode="normal" in="SourceGraphic" in2="effect2_dropShadow_891_3657" result="shape"/>
<feGaussianBlur stdDeviation="0.5" result="effect3_foregroundBlur_891_3657"/>
</filter>
<filter id="filter3_dd_891_3657" x="2" y="1.6" width="28.4" height="28.4" filterUnits="userSpaceOnUse" color-interpolation-filters="sRGB">
<feFlood flood-opacity="0" result="BackgroundImageFix"/>
<feColorMatrix in="SourceAlpha" type="matrix" values="0 0 0 0 0 0 0 0 0 0 0 0 0 0 0 0 0 0 127 0" result="hardAlpha"/>
<feOffset dx="0.4" dy="-0.4"/>
<feGaussianBlur stdDeviation="1"/>
<feColorMatrix type="matrix" values="0 0 0 0 1 0 0 0 0 1 0 0 0 0 1 0 0 0 1 0"/>
<feBlend mode="normal" in2="BackgroundImageFix" result="effect1_dropShadow_891_3657"/>
<feColorMatrix in="SourceAlpha" type="matrix" values="0 0 0 0 0 0 0 0 0 0 0 0 0 0 0 0 0 0 127 0" result="hardAlpha"/>
<feOffset dx="-1" dy="1"/>
<feGaussianBlur stdDeviation="0.5"/>
<feComposite in2="hardAlpha" operator="out"/>
<feColorMatrix type="matrix" values="0 0 0 0 0 0 0 0 0 0 0 0 0 0 0 0 0 0 0.16 0"/>
<feBlend mode="normal" in2="effect1_dropShadow_891_3657" result="effect2_dropShadow_891_3657"/>
<feBlend mode="normal" in="SourceGraphic" in2="effect2_dropShadow_891_3657" result="shape"/>
</filter>
</defs>
</svg>
